<svg width="104" height="94" viewBox="0 0 104 94" fill="none" xmlns="http://www.w3.org/2000/svg">
<path d="M52.7697 54.8001C52.7697 67.3099 50.4915 76.8786 45.9349 83.5062C41.4198 90.1339 34.9578 93.4478 26.549 93.4478C18.2229 93.4478 11.7817 90.2375 7.22513 83.8169C2.71002 77.3549 0.369625 68.1176 0.203933 56.1049V39.0179C0.203933 26.5496 2.46149 17.0223 6.97659 10.4361C11.4917 3.80839 17.9744 0.49455 26.4247 0.49455C34.875 0.49455 41.3577 3.76697 45.8728 10.3118C50.3879 16.8566 52.6869 26.1975 52.7697 38.3345V54.8001ZM35.1235 36.4704C35.1235 29.3457 34.4193 24.0021 33.011 20.4397C31.6026 16.8773 29.4072 15.0962 26.4247 15.0962C20.8326 15.0962 17.933 21.6203 17.7259 34.6685V57.2234C17.7259 64.5138 18.4301 69.9402 19.8384 73.5026C21.2882 77.065 23.5251 78.8462 26.549 78.8462C29.4072 78.8462 31.5197 77.1892 32.8867 73.8754C34.2951 70.5201 35.0407 65.4044 35.1235 58.5282V36.4704ZM103.285 92.2051H85.6389V23.1115L68.4276 29.7599V15.0962L101.421 1.61297H103.285V92.2051Z" fill="white"/>
</svg>
