<svg width="119" height="94" viewBox="0 0 119 94" fill="none" xmlns="http://www.w3.org/2000/svg">
<path d="M53.1265 54.8001C53.1265 67.3099 50.8482 76.8786 46.2917 83.5062C41.7766 90.1339 35.3146 93.4478 26.9057 93.4478C18.5797 93.4478 12.1384 90.2375 7.58188 83.8169C3.06678 77.3549 0.726376 68.1176 0.560683 56.1049V39.0179C0.560683 26.5496 2.81824 17.0223 7.33334 10.4361C11.8485 3.80839 18.3312 0.49455 26.7814 0.49455C35.2317 0.49455 41.7144 3.76697 46.2295 10.3118C50.7447 16.8566 53.0436 26.1975 53.1265 38.3345V54.8001ZM35.4803 36.4704C35.4803 29.3457 34.7761 24.0021 33.3677 20.4397C31.9593 16.8773 29.7639 15.0962 26.7814 15.0962C21.1893 15.0962 18.2897 21.6203 18.0826 34.6685V57.2234C18.0826 64.5138 18.7868 69.9402 20.1952 73.5026C21.645 77.065 23.8818 78.8462 26.9057 78.8462C29.7639 78.8462 31.8765 77.1892 33.2434 73.8754C34.6518 70.5201 35.3974 65.4044 35.4803 58.5282V36.4704ZM118.243 92.2051H64.932V79.7782L89.413 48.6488C92.5197 44.3408 94.798 40.5713 96.2478 37.3403C97.739 34.0679 98.4847 30.9405 98.4847 27.958C98.4847 23.94 97.7805 20.7918 96.3721 18.5136C95.0051 16.2353 93.0168 15.0962 90.4072 15.0962C87.549 15.0962 85.2707 16.4217 83.5724 19.0728C81.9155 21.7238 81.087 25.4519 81.087 30.257H63.4408C63.4408 24.7063 64.5799 19.632 66.8582 15.034C69.1779 10.4361 72.4089 6.87369 76.5512 4.34689C80.7349 1.77866 85.4571 0.49455 90.7178 0.49455C98.7953 0.49455 105.05 2.73139 109.482 7.20508C113.956 11.6373 116.193 17.9543 116.193 26.1561C116.193 31.2511 114.95 36.429 112.465 41.6897C110.021 46.909 105.568 53.3503 99.106 61.0136L87.4869 77.6035H118.243V92.2051Z" fill="white"/>
</svg>
