<svg width="118" height="94" viewBox="0 0 118 94" fill="none" xmlns="http://www.w3.org/2000/svg">
<path d="M53.027 54.7176C53.027 67.2273 50.7487 76.796 46.1922 83.4237C41.6771 90.0514 35.2151 93.3652 26.8062 93.3652C18.4802 93.3652 12.0389 90.155 7.4824 83.7344C2.96729 77.2724 0.626888 68.0351 0.461196 56.0224V38.9354C0.461196 26.4671 2.71875 16.9398 7.23386 10.3536C11.749 3.72587 18.2317 0.41203 26.682 0.41203C35.1322 0.41203 41.6149 3.68445 46.1301 10.2293C50.6452 16.7741 52.9441 26.115 53.027 38.2519V54.7176ZM35.3808 36.3879C35.3808 29.2632 34.6766 23.9196 33.2682 20.3572C31.8598 16.7948 29.6644 15.0136 26.682 15.0136C21.0899 15.0136 18.1902 21.5378 17.9831 34.586V57.1408C17.9831 64.4313 18.6873 69.8577 20.0957 73.4201C21.5455 76.9825 23.7823 78.7636 26.8062 78.7636C29.6644 78.7636 31.777 77.1067 33.1439 73.7929C34.5523 70.4376 35.2979 65.3219 35.3808 58.4457V36.3879ZM80.4904 38.8733H89.0029C92.2339 38.8733 94.595 37.7549 96.0862 35.518C97.6188 33.2398 98.3852 30.2159 98.3852 26.4464C98.3852 22.8426 97.5981 20.0465 96.0241 18.0582C94.4914 16.0285 92.4203 15.0136 89.8106 15.0136C87.3667 15.0136 85.3576 15.9664 83.7836 17.8718C82.2509 19.7773 81.4846 22.1798 81.4846 25.0794H63.9005C63.9005 20.3572 64.9775 16.1321 67.1315 12.404C69.3269 8.6345 72.3715 5.69346 76.2653 3.58089C80.2005 1.46832 84.5499 0.41203 89.3135 0.41203C97.6396 0.41203 104.164 2.71101 108.886 7.30896C113.608 11.9069 115.969 18.2032 115.969 26.1978C115.969 30.2987 114.892 34.1096 112.738 37.6306C110.626 41.1101 107.83 43.7819 104.35 45.6459C108.617 47.4686 111.786 50.2025 113.857 53.8477C115.969 57.4929 117.026 61.8009 117.026 66.7717C117.026 74.8077 114.457 81.249 109.321 86.0955C104.226 90.942 97.5153 93.3652 89.1893 93.3652C81.4432 93.3652 75.1469 90.9834 70.3004 86.2198C65.4953 81.4147 63.0928 75.1184 63.0928 67.3309H80.6768C80.6768 70.5619 81.526 73.2751 83.2244 75.4705C84.9227 77.6659 87.0767 78.7636 89.6863 78.7636C92.7102 78.7636 95.092 77.6452 96.8318 75.4084C98.613 73.1715 99.5036 70.1891 99.5036 66.461C99.5036 57.5551 96.0448 53.0814 89.1271 53.04H80.4904V38.8733Z" fill="white"/>
</svg>
