<svg width="119" height="94" viewBox="0 0 119 94" fill="none" xmlns="http://www.w3.org/2000/svg">
<path d="M52.5973 54.5955C52.5973 67.1051 50.3191 76.6737 45.7626 83.3013C41.2475 89.9289 34.7856 93.2427 26.3768 93.2427C18.0509 93.2427 11.6097 90.0324 7.05322 83.6119C2.53817 77.15 0.197795 67.9128 0.0321045 55.9003V38.8135C0.0321045 26.3453 2.28963 16.8181 6.80469 10.2319C11.3197 3.60433 17.8024 0.290527 26.2526 0.290527C34.7028 0.290527 41.1854 3.56291 45.7004 10.1077C50.2155 16.6524 52.5144 25.9932 52.5973 38.13V54.5955ZM34.9513 36.266C34.9513 29.1413 34.2471 23.7978 32.8387 20.2355C31.4304 16.6731 29.235 14.892 26.2526 14.892C20.6605 14.892 17.7609 21.416 17.5538 34.4641V57.0187C17.5538 64.309 18.258 69.7354 19.6664 73.2977C21.1162 76.8601 23.353 78.6412 26.3768 78.6412C29.235 78.6412 31.3475 76.9843 32.7145 73.6705C34.1228 70.3153 34.8684 65.1996 34.9513 58.3235V36.266ZM110.755 57.8264H118.459V72.4279H110.755V92H93.1707V72.4279H63.2222L62.4144 61.0574L93.1085 1.5332H110.755V57.8264ZM79.5012 57.8264H93.1707V27.5673L92.7979 28.2507L79.5012 57.8264Z" fill="white"/>
</svg>
