<svg width="166" height="169" viewBox="0 0 166 169" fill="none" xmlns="http://www.w3.org/2000/svg">
<path d="M114 162.263C114 136.381 107.114 110.962 94.05 88.605H19.95C6.8856 110.962 0 136.381 0 162.263C0 165.574 2.6904 168.26 6.0078 168.26H107.995C111.31 168.26 114 165.574 114 162.263Z" fill="#98C3E6"/>
<path d="M111.389 67.3445C112.858 65.4335 111.513 62.6499 109.118 62.6499H5.87949C3.48756 62.6499 2.1421 65.4335 3.61118 67.3445L8.94415 74.2847H106.053L111.389 67.3445Z" fill="#D1D1D1"/>
<path d="M106 74.2847H9L20.168 88.605H94.832L106 74.2847Z" fill="#88BCE6"/>
<path d="M57.5 96.6597C35.6847 96.6597 18 114.558 18 136.636V156.625H34.9286V145.203H57.5V136.636C34.9286 136.636 57.5 108.082 57.5 108.082C57.5 108.082 80.0714 136.636 57.5 136.636V145.203H80.0714V156.625H97V136.636C97 114.558 79.3153 96.6597 57.5 96.6597Z" fill="#446480"/>
<path d="M126 119.035V165.364C126 166.963 127.28 168.26 128.857 168.26H163.143C164.72 168.26 166 166.963 166 165.364V119.035" fill="#EDB846"/>
<path d="M162.64 102.533L154.8 96.6597H152V119.035H166V109.246C166 106.605 164.754 104.119 162.64 102.533Z" fill="#98C3E6"/>
<path d="M140 96.6597H137.2L129.36 102.533C127.246 104.119 126 106.605 126 109.246V119.035H140V96.6597Z" fill="#98C3E6"/>
<path d="M140 96.6597V148.211L146 153.939L152 148.211V96.6597H140Z" fill="#805B32"/>
<path d="M155 62.3514C155 57.5728 150.971 53.6997 146 53.6997C141.029 53.6997 137 57.5728 137 62.3514V79.6548H155V62.3514Z" fill="#805B32"/>
<path d="M57.5 108.295C57.5 108.295 33.875 136.04 57.5 136.04C81.125 136.04 57.5 108.295 57.5 108.295Z" fill="#EDB846"/>
<path d="M143 61.9903V53.6997C139.511 54.9156 137 58.1512 137 61.9903V79.6548H155V73.7666C148.373 73.7666 143 68.4937 143 61.9903Z" fill="#5E4325"/>
<path d="M160.167 96.6597H131.833C130.269 96.6597 129 95.39 129 93.8255V82.4889C129 80.9245 130.269 79.6548 131.833 79.6548H160.167C161.731 79.6548 163 80.9245 163 82.4889V93.8255C163 95.39 161.731 96.6597 160.167 96.6597Z" fill="#D1D1D1"/>
<path d="M160.167 96.6597H131.833C130.269 96.6597 129 95.2564 129 93.5273V90.395H163V93.5273C163 95.2564 161.731 96.6597 160.167 96.6597Z" fill="#C7C7C7"/>
<path d="M140 119.035V148.122L146 153.939L152 148.122V119.035H140Z" fill="#BD8F2B"/>
<path d="M12 102.925C21.8328 96.7177 36.2748 91.343 56.8817 91.343C75.6977 91.343 90.2287 95.8251 101 101.329C98.9393 96.9997 96.7179 92.7339 94.1923 88.605H19.5712C16.7356 93.2432 14.2501 98.0402 12 102.925Z" fill="#7AB5E6"/>
<path d="M0.0683998 159.31C0.0598498 160.074 0 160.835 0 161.6C0 165.277 2.6904 168.26 6.0078 168.26H107.995C111.31 168.26 114 165.277 114 161.6C114 161.174 113.966 160.747 113.963 160.321C101.317 163.06 83.1601 165.101 57 165.101C27.702 165.101 10.3455 162.541 0.0683998 159.31Z" fill="#7AB5E6"/>
<path d="M54 130.67H60V144.99H54V130.67Z" fill="#BD8F2B"/>
<path d="M57 144.99H34V156.625H80V144.99H57Z" fill="#D1D1D1"/>
<path d="M34 153.939H80V156.625H34V153.939Z" fill="#C7C7C7"/>
<path d="M36.3733 48.3311H36.3619C35.4431 48.3311 34.5673 47.9131 34.0579 47.1541C33.5599 46.412 32.5381 45.7155 30.8982 44.6977C28.2765 43.0715 24.6875 40.8426 24.6875 36.2426C24.6875 31.6426 28.2765 29.4137 30.8982 27.7847C33.3452 26.2637 34.4185 25.4619 34.4185 24.1513C34.4185 22.8435 33.3452 22.0418 30.8982 20.5208C28.2765 18.8946 24.6875 16.6685 24.6875 12.0714C24.6875 7.47426 28.2765 5.25103 30.8982 3.62199C32.5353 2.60703 33.557 1.91334 34.055 1.17416C34.5673 0.417922 35.4431 0 36.359 0H36.3704C38.6544 0 40.0711 2.56155 38.7631 4.42087C37.4781 6.24892 35.5261 7.46004 33.9348 8.44656C31.4878 9.96188 30.4145 10.7636 30.4145 12.0685C30.4145 13.3763 31.4878 14.1752 33.9348 15.6962C36.5565 17.3224 40.1455 19.5485 40.1455 24.1485C40.1455 28.7485 36.5565 30.9745 33.9348 32.6036C31.4878 34.1246 30.4145 34.9291 30.4145 36.2398C30.4145 37.5504 31.4878 38.3521 33.9348 39.8731C35.529 40.8625 37.4809 42.0736 38.766 43.9073C40.0711 45.7695 38.6544 48.3311 36.3733 48.3311Z" fill="#EDB846"/>
<path d="M59.2698 48.3311H59.2584C58.3397 48.3311 57.4639 47.9131 56.9544 47.1541C56.4564 46.412 55.4347 45.7155 53.7947 44.6977C51.173 43.0715 47.584 40.8426 47.584 36.2426C47.584 31.6426 51.173 29.4137 53.7947 27.7847C56.2418 26.2637 57.315 25.4619 57.315 24.1513C57.315 22.8435 56.2418 22.0418 53.7947 20.5208C51.173 18.8946 47.584 16.6685 47.584 12.0714C47.584 7.47426 51.173 5.25103 53.7947 3.62199C55.4318 2.60703 56.4536 1.91334 56.9516 1.17416C57.4639 0.417922 58.3397 0 59.2555 0H59.267C61.5509 0 62.9676 2.56155 61.6597 4.42087C60.3746 6.24892 58.4227 7.46004 56.8314 8.44656C54.3843 9.96188 53.311 10.7636 53.311 12.0685C53.311 13.3763 54.3843 14.1752 56.8314 15.6962C59.453 17.3224 63.0421 19.5485 63.0421 24.1485C63.0421 28.7485 59.453 30.9745 56.8314 32.6036C54.3843 34.1246 53.311 34.9291 53.311 36.2398C53.311 37.5504 54.3843 38.3521 56.8314 39.8731C58.4255 40.8625 60.3775 42.0736 61.6625 43.9073C62.9676 45.7695 61.5509 48.3311 59.2698 48.3311Z" fill="#EDB846"/>
<path d="M82.1663 48.3311H82.1549C81.2361 48.3311 80.3604 47.9131 79.8509 47.1541C79.3529 46.412 78.3311 45.7155 76.6912 44.6977C74.0695 43.0715 70.4805 40.8426 70.4805 36.2426C70.4805 31.6426 74.0695 29.4137 76.6912 27.7847C79.1382 26.2637 80.2115 25.4619 80.2115 24.1513C80.2115 22.8435 79.1382 22.0418 76.6912 20.5208C74.0695 18.8946 70.4805 16.6685 70.4805 12.0714C70.4805 7.47426 74.0695 5.25103 76.6912 3.62199C78.3283 2.60703 79.35 1.91334 79.848 1.17416C80.3604 0.417922 81.2361 0 82.152 0H82.1635C84.4474 0 85.8641 2.56155 84.5562 4.42087C83.2711 6.24892 81.3191 7.46004 79.7278 8.44656C77.2808 9.96188 76.2075 10.7636 76.2075 12.0685C76.2075 13.3763 77.2808 14.1752 79.7278 15.6962C82.3495 17.3224 85.9385 19.5485 85.9385 24.1485C85.9385 28.7485 82.3495 30.9745 79.7278 32.6036C77.2808 34.1246 76.2075 34.9291 76.2075 36.2398C76.2075 37.5504 77.2808 38.3521 79.7278 39.8731C81.322 40.8625 83.2739 42.0736 84.559 43.9073C85.8641 45.7695 84.4474 48.3311 82.1663 48.3311Z" fill="#EDB846"/>
</svg>
