<svg width="48" height="42" viewBox="0 0 48 42" fill="none" xmlns="http://www.w3.org/2000/svg">
<path d="M47.9903 15.856C47.9854 15.8083 47.9744 15.7613 47.9575 15.7157C47.9466 15.6749 47.9313 15.6351 47.912 15.5967C47.8896 15.5592 47.8627 15.5237 47.832 15.4909C47.8011 15.452 47.7654 15.4161 47.7256 15.3838C47.7127 15.3741 47.7072 15.3609 47.6936 15.3513L39.9996 10.1879V4.83646C39.9996 3.69109 38.925 2.76252 37.5995 2.76252H28.9294L25.458 0.433462C24.6004 -0.144487 23.3978 -0.144487 22.5402 0.433462L19.068 2.76252H10.398C9.07246 2.76252 7.99784 3.69101 7.99784 4.83646V10.188L0.306297 15.3514C0.292702 15.3611 0.287077 15.3742 0.274326 15.3838C0.234481 15.4161 0.19876 15.4521 0.167915 15.491C0.137163 15.5238 0.110349 15.5592 0.087942 15.5968C0.0685347 15.6351 0.0533465 15.675 0.0423772 15.7158C0.0256888 15.7607 0.0147195 15.8071 0.00956299 15.854C0.00956299 15.8685 0 15.881 0 15.8955V39.4021C0.00112506 39.8419 0.165758 40.2696 0.469618 40.6223C0.474399 40.6285 0.475243 40.6361 0.480774 40.6416C0.4864 40.6471 0.4984 40.6534 0.506369 40.661C0.95583 41.172 1.65487 41.4733 2.39768 41.4761H45.5999C46.3456 41.4741 47.0475 41.1714 47.4976 40.6576C47.5039 40.6507 47.5136 40.6486 47.5191 40.6417C47.5248 40.6348 47.5255 40.6286 47.5304 40.6224C47.8342 40.2696 47.9989 39.8419 48 39.4022V15.8975C47.9999 15.883 47.9912 15.8705 47.9903 15.856ZM23.5187 1.52431C23.7981 1.33247 24.1937 1.33247 24.4731 1.52431L26.3187 2.76244H21.6785L23.5187 1.52431ZM2.59926 40.0935L23.5188 26.0522C23.7983 25.8607 24.1937 25.8607 24.4732 26.0522L45.3982 40.0935H2.59926ZM46.3999 39.0157L25.458 24.9612C24.6002 24.3838 23.398 24.3838 22.5402 24.9612L1.59758 39.0157V16.9503L14.7079 25.7473C15.0572 25.9814 15.5599 25.9264 15.8308 25.6246C16.1016 25.3227 16.0381 24.8883 15.6887 24.6543L2.36965 15.7177L7.99794 11.9383V17.28C7.99794 17.6619 8.35617 17.9713 8.79795 17.9713C9.23981 17.9713 9.59796 17.6618 9.59796 17.28V4.83638C9.59796 4.45456 9.9561 4.14509 10.398 4.14509H37.5993C38.0412 4.14509 38.3993 4.45456 38.3993 4.83638V17.28C38.3993 17.6619 38.7575 17.9713 39.1993 17.9713C39.6412 17.9713 39.9993 17.6618 39.9993 17.28V11.9383L45.6276 15.7177L32.2854 24.6702C32.0559 24.8205 31.9375 25.0658 31.9755 25.3125C32.0136 25.5592 32.2021 25.7692 32.4692 25.8623C32.7363 25.9554 33.0408 25.9173 33.2663 25.7625L46.3997 16.9503V39.0157H46.3999Z" fill="#9BC78B"/>
<path d="M33.599 16.588V13.8228C33.599 9.24105 29.3008 5.52686 23.9986 5.52686C18.6964 5.52686 14.3981 9.24105 14.3981 13.8228C14.3981 18.4045 18.6964 22.1187 23.9986 22.1187C24.4404 22.1187 24.7986 21.8092 24.7986 21.4274C24.7986 21.0455 24.4404 20.7361 23.9986 20.7361C19.5801 20.7361 15.9982 17.6409 15.9982 13.8228C15.9982 10.0048 19.5801 6.90961 23.9986 6.90961C28.417 6.90961 31.9989 10.0048 31.9989 13.8228V16.5881C31.9989 17.3518 31.2826 17.9708 30.3988 17.9708C29.5151 17.9708 28.7987 17.3518 28.7987 16.5881V13.8228C28.7987 13.441 28.4406 13.1315 27.9987 13.1315C27.5568 13.1315 27.1987 13.441 27.1987 13.8228C27.1987 15.35 25.7659 16.5881 23.9986 16.5881C22.2312 16.5881 20.7984 15.35 20.7984 13.8228C20.7984 12.2956 22.2312 11.0576 23.9986 11.0576C24.4404 11.0576 24.7986 10.7481 24.7986 10.3663C24.7986 9.98444 24.4404 9.67497 23.9986 9.67497C21.8502 9.67084 19.9602 10.9007 19.3714 12.6861C18.7826 14.4715 19.6383 16.3776 21.4665 17.3526C23.2947 18.3277 25.6501 18.1344 27.2331 16.8793C27.4073 18.3413 28.8778 19.4283 30.5763 19.3506C32.2749 19.2729 33.6044 18.0578 33.599 16.588Z" fill="#9BC78B"/>
</svg>
