<svg width="34" height="47" viewBox="0 0 34 47" fill="none" xmlns="http://www.w3.org/2000/svg">
<path d="M17 0C7.62615 0 0 7.63586 0 17.0215C0 28.6695 15.2133 45.7693 15.8611 46.4916C16.4694 47.1701 17.5317 47.1689 18.1389 46.4916C18.7867 45.7693 34 28.6695 34 17.0215C33.9998 7.63586 26.3738 0 17 0ZM17 25.5856C12.2838 25.5856 8.44696 21.7438 8.44696 17.0215C8.44696 12.2993 12.2839 8.45762 17 8.45762C21.7161 8.45762 25.5529 12.2994 25.5529 17.0216C25.5529 21.7439 21.7161 25.5856 17 25.5856Z" fill="#9BC78B"/>
</svg>
