<svg width="24" height="44" viewBox="0 0 24 44" fill="none" xmlns="http://www.w3.org/2000/svg">
<path d="M15.5294 2.15918H8.47062C8.08101 2.15918 7.76477 2.48153 7.76477 2.87866C7.76477 3.2758 8.08101 3.59814 8.47062 3.59814H15.5294C15.919 3.59814 16.2352 3.2758 16.2352 2.87866C16.2352 2.48153 15.919 2.15918 15.5294 2.15918Z" fill="#9BC78B"/>
<path d="M20.4706 2.15918H19.7647C19.3751 2.15918 19.0589 2.48153 19.0589 2.87866C19.0589 3.2758 19.3751 3.59814 19.7647 3.59814H20.4706C20.8602 3.59814 21.1764 3.2758 21.1764 2.87866C21.1764 2.48153 20.8602 2.15918 20.4706 2.15918Z" fill="#9BC78B"/>
<path d="M12.8767 36.6841H11.124C10.0504 36.6841 9.17654 37.5746 9.17654 38.6686V39.0161C9.17654 40.1102 10.0504 41 11.1234 41H12.876C13.9497 41 14.8235 40.1102 14.8235 39.0161V38.6686C14.8235 37.5746 13.9497 36.6841 12.8767 36.6841ZM13.4118 39.0161C13.4118 39.3168 13.1718 39.5613 12.8768 39.5613H11.124C10.8283 39.5613 10.5882 39.3168 10.5882 39.0161V38.6686C10.5882 38.3673 10.8282 38.1227 11.124 38.1227H12.876C13.1718 38.1227 13.4118 38.3672 13.4118 38.6686V39.0161Z" fill="#9BC78B"/>
<path d="M21.4489 0H2.55176C1.14493 0 0 1.1667 0 2.60028V40.5579C0 41.9915 1.14493 43.1582 2.55176 43.1582H21.4481C22.8549 43.1582 23.9999 41.9915 23.9999 40.5587V2.60028C24 1.1667 22.855 0 21.4489 0ZM22.5882 40.5579C22.5882 41.1981 22.0771 41.7196 21.4489 41.7196H2.55176C1.92283 41.7196 1.41179 41.198 1.41179 40.5586V2.60028C1.41179 1.96007 1.92283 1.43863 2.55176 1.43863H21.4481C22.077 1.43863 22.5881 1.96016 22.5881 2.60028V40.5579H22.5882Z" fill="#9BC78B"/>
<path d="M23.2941 4.31641H0.705975C0.316362 4.31641 0.00012207 4.63866 0.00012207 5.03567V35.2461C0.00012207 35.6431 0.316362 35.9653 0.705975 35.9653H23.2942C23.6838 35.9653 24 35.6431 24 35.2461V5.03567C24 4.63866 23.6838 4.31641 23.2941 4.31641ZM22.5882 34.5268H1.41183V5.75502H22.5882V34.5268Z" fill="#9BC78B"/>
</svg>
