<svg width="46" height="46" viewBox="0 0 46 46" fill="none" xmlns="http://www.w3.org/2000/svg">
<path d="M39.261 6.70106C30.2776 -2.23558 15.7148 -2.23343 6.73409 6.70598C-2.2466 15.6454 -2.24444 30.1367 6.73903 39.0734C15.7225 48.01 30.2853 48.0078 39.2659 39.0684C43.579 34.7752 46.0013 28.9528 46 22.8823C45.9987 16.8127 43.5747 10.9922 39.261 6.70106ZM34.8327 31.8816C34.8317 31.8826 34.8307 31.8837 34.8296 31.8846V31.877L33.6643 33.029C32.1572 34.5477 29.9622 35.1725 27.8759 34.6769C25.774 34.117 23.7759 33.2259 21.9573 32.0373C20.2677 30.9627 18.7019 29.7066 17.2883 28.2914C15.9876 27.0065 14.8191 25.5958 13.7999 24.0801C12.6852 22.4492 11.8028 20.6726 11.1779 18.8008C10.4616 16.6018 11.0552 14.1889 12.7113 12.5679L14.0759 11.2099C14.4553 10.8307 15.0719 10.8293 15.4529 11.2069C15.4539 11.2079 15.4549 11.2088 15.4559 11.2099L19.7646 15.4974C20.1457 15.875 20.147 16.4885 19.7676 16.8676C19.7666 16.8686 19.7656 16.8696 19.7646 16.8707L17.2346 19.3882C16.5086 20.1028 16.4173 21.2382 17.0199 22.0584C17.935 23.3081 18.9476 24.484 20.0483 25.5755C21.2755 26.8019 22.6096 27.9176 24.0349 28.9094C24.8585 29.481 25.9751 29.3847 26.6876 28.6805L29.1332 26.2087C29.5126 25.8295 30.1291 25.8281 30.5101 26.2057C30.5111 26.2067 30.5121 26.2076 30.5132 26.2087L34.8296 30.5115C35.2108 30.889 35.2121 31.5024 34.8327 31.8816Z" fill="#9BC78B"/>
</svg>
