<svg width="129" height="92" viewBox="0 0 129 92" fill="none" xmlns="http://www.w3.org/2000/svg">
<path d="M122.181 0.270752H6.56788C3.15356 0.270752 0.374329 3.04999 0.374329 6.4643V64.2708C0.374329 67.6851 3.15356 70.4643 6.56788 70.4643H63.0588C65.8673 82.2818 76.4852 91.1095 89.1485 91.1095C101.812 91.1095 112.43 82.2818 115.238 70.4643H122.181C125.595 70.4643 128.374 67.6851 128.374 64.2708V6.4643C128.374 3.04999 125.595 0.270752 122.181 0.270752ZM124.245 6.4643V20.9159H70.5679V14.0863C70.5679 11.0228 68.0759 8.52882 65.0124 8.52882C64.337 8.52882 63.6767 8.65079 63.0528 8.88567L49.3259 14.0621C47.8723 12.4391 45.9449 11.2516 43.7292 10.802V4.39978H122.181C123.32 4.39978 124.245 5.3272 124.245 6.4643ZM41.6646 14.7224C45.079 14.7224 47.8582 17.5016 47.8582 20.9159C47.8582 24.3302 45.079 27.1095 41.6646 27.1095C38.2503 27.1095 35.4711 24.3302 35.4711 20.9159C35.4711 17.5016 38.2503 14.7224 41.6646 14.7224ZM31.9116 24.1468L18.8189 29.0833C17.9368 29.4179 16.8905 28.7052 16.8905 27.7456V14.0863C16.8905 13.1266 17.9207 12.4119 18.8229 12.7506L31.9116 17.6871C31.5709 18.7072 31.3421 19.7808 31.3421 20.9159C31.3421 22.051 31.5709 23.1246 31.9116 24.1468ZM36.2161 29.6468C37.0195 30.1508 37.9005 30.5258 38.83 30.7929L30.4298 52.6377L23.8229 47.3524L36.2161 29.6468ZM47.1132 29.6468L59.5064 47.3544L52.8995 52.6397L44.4993 30.7949C45.4308 30.5238 46.3098 30.1488 47.1132 29.6468ZM51.4177 17.6851L64.5104 12.7486C65.3945 12.4119 66.4388 13.1266 66.4388 14.0863V27.7456C66.4388 28.7052 65.4126 29.424 64.5064 29.0812L51.4177 24.1447C51.7584 23.1246 51.9872 22.051 51.9872 20.9159C51.9872 19.7808 51.7584 18.7072 51.4177 17.6851ZM6.56788 4.39978H39.6001V10.802C37.3874 11.2536 35.457 12.4391 34.0034 14.0621L20.2806 8.88769C19.6546 8.65079 18.9943 8.52882 18.3169 8.52882C15.2534 8.52882 12.7614 11.0228 12.7614 14.0863V20.9159H4.50336V6.4643C4.50336 5.3272 5.42876 4.39978 6.56788 4.39978ZM4.50336 64.2708V25.0449H12.7614V27.7456C12.7614 30.8091 15.2534 33.303 18.3169 33.303C18.9923 33.303 19.6526 33.181 20.2765 32.9462L31.9449 28.546L18.2161 48.1568L32.2544 59.3877L39.6001 40.2939V66.3353H6.56788C5.42876 66.3353 4.50336 65.4079 4.50336 64.2708ZM89.1485 86.9804C76.6273 86.9804 66.4388 76.7919 66.4388 64.2708C66.4388 51.7496 76.6273 41.5611 89.1485 41.5611C101.67 41.5611 111.858 51.7496 111.858 64.2708C111.858 76.7919 101.67 86.9804 89.1485 86.9804ZM122.181 66.3353H115.882C115.936 65.6518 115.987 64.9683 115.987 64.2708C115.987 49.4724 103.947 37.432 89.1485 37.432C74.3501 37.432 62.3098 49.4724 62.3098 64.2708C62.3098 64.9683 62.3612 65.6518 62.4146 66.3353H43.7292V40.2939L51.0749 59.3877L65.1132 48.1568L51.3844 28.546L63.0487 32.9441C63.6747 33.181 64.335 33.303 65.0124 33.303C68.0759 33.303 70.5679 30.8091 70.5679 27.7456V25.0449H124.245V64.2708C124.245 65.4079 123.32 66.3353 122.181 66.3353ZM85.0195 58.0772C85.0195 60.3544 86.8713 62.2062 89.1485 62.2062C93.703 62.2062 97.4066 65.9099 97.4066 70.4643C97.4066 74.3 94.7665 77.5066 91.213 78.429V82.8514H87.084V78.429C83.5306 77.5066 80.8905 74.3 80.8905 70.4643H85.0195C85.0195 72.7415 86.8713 74.5933 89.1485 74.5933C91.4257 74.5933 93.2775 72.7415 93.2775 70.4643C93.2775 68.1871 91.4257 66.3353 89.1485 66.3353C84.5941 66.3353 80.8905 62.6316 80.8905 58.0772C80.8905 54.2415 83.5306 51.0349 87.084 50.1125V45.6901H91.213V50.1125C94.7665 51.0349 97.4066 54.2415 97.4066 58.0772H93.2775C93.2775 55.8 91.4257 53.9482 89.1485 53.9482C86.8713 53.9482 85.0195 55.8 85.0195 58.0772Z" fill="url(#paint0_linear)"/>
<defs>
<linearGradient id="paint0_linear" x1="64.3743" y1="0.270752" x2="64.3743" y2="91.1095" gradientUnits="userSpaceOnUse">
<stop stop-color="#A26DD7"/>
<stop offset="0.489583" stop-color="#F72A9E" stop-opacity="0.510417"/>
<stop offset="1" stop-color="#73A0AA"/>
</linearGradient>
</defs>
</svg>
